<svg width="30" height="30" viewBox="0 0 30 30" fill="none" xmlns="http://www.w3.org/2000/svg">
<path d="M15 11.0578C14.2643 11.0578 13.545 11.2716 12.9333 11.6724C12.3215 12.0731 11.8447 12.6426 11.5632 13.3089C11.2816 13.9753 11.2079 14.7085 11.3515 15.4159C11.495 16.1233 11.8493 16.7731 12.3696 17.2831C12.8898 17.7931 13.5527 18.1404 14.2743 18.2811C14.9959 18.4218 15.7438 18.3496 16.4236 18.0736C17.1033 17.7976 17.6843 17.3302 18.0931 16.7305C18.5018 16.1308 18.72 15.4257 18.72 14.7045C18.72 14.2256 18.6238 13.7514 18.4368 13.3089C18.2499 12.8665 17.9759 12.4645 17.6304 12.1259C17.285 11.7872 16.8749 11.5186 16.4236 11.3354C15.9723 11.1521 15.4885 11.0578 15 11.0578ZM29.895 7.45517C29.8871 6.31963 29.6738 5.19446 29.265 4.13196C28.9639 3.35448 28.4981 2.64842 27.8982 2.06037C27.2984 1.47233 26.5781 1.01566 25.785 0.72052C24.7011 0.319769 23.5534 0.110667 22.395 0.102931C20.46 -1.02253e-07 19.89 0 15 0C10.11 0 9.54 -1.02253e-07 7.605 0.102931C6.44664 0.110667 5.29886 0.319769 4.215 0.72052C3.42189 1.01566 2.70164 1.47233 2.10178 2.06037C1.50192 2.64842 1.03608 3.35448 0.735 4.13196C0.326196 5.19446 0.112891 6.31963 0.105 7.45517C-1.04308e-07 9.35205 0 9.91082 0 14.7045C0 19.4981 -1.04308e-07 20.0569 0.105 21.9538C0.121146 23.0933 0.334161 24.222 0.735 25.2917C1.03474 26.0656 1.50019 26.7676 2.1 27.3503C2.69729 27.9419 3.41908 28.3986 4.215 28.6885C5.29886 29.0892 6.44664 29.2983 7.605 29.306C9.54 29.409 10.11 29.409 15 29.409C19.89 29.409 20.46 29.409 22.395 29.306C23.5534 29.2983 24.7011 29.0892 25.785 28.6885C26.5809 28.3986 27.3027 27.9419 27.9 27.3503C28.4998 26.7676 28.9653 26.0656 29.265 25.2917C29.6734 24.224 29.8867 23.0941 29.895 21.9538C30 20.0569 30 19.4981 30 14.7045C30 9.91082 30 9.35205 29.895 7.45517ZM26.085 19.2188C26.0369 20.1262 25.8393 21.02 25.5 21.8656C25.2088 22.5709 24.7759 23.2117 24.227 23.7497C23.6782 24.2878 23.0245 24.7122 22.305 24.9976C21.4343 25.3117 20.5174 25.4855 19.59 25.5123C18.405 25.5123 18.09 25.5123 15 25.5123C11.91 25.5123 11.595 25.5123 10.41 25.5123C9.4826 25.4855 8.56573 25.3117 7.695 24.9976C6.95115 24.7267 6.27942 24.2943 5.73 23.733C5.1865 23.2055 4.76677 22.5683 4.5 21.8656C4.17834 21.0129 4.00591 20.1131 3.99 19.2041C3.99 18.0424 3.99 17.7336 3.99 14.7045C3.99 11.6754 3.99 11.3666 3.99 10.2049C4.00591 9.29592 4.17834 8.39609 4.5 7.5434C4.77642 6.81421 5.21741 6.15571 5.79 5.61711C6.3305 5.0872 6.9799 4.67616 7.695 4.41135C8.56573 4.09727 9.4826 3.92347 10.41 3.89669C11.595 3.89669 11.91 3.89669 15 3.89669C18.09 3.89669 18.405 3.89669 19.59 3.89669C20.5174 3.92347 21.4343 4.09727 22.305 4.41135C23.0488 4.68232 23.7206 5.11462 24.27 5.67593C24.8135 6.20345 25.2332 6.84072 25.5 7.5434C25.8204 8.39698 25.9977 9.29578 26.025 10.2049C26.025 11.3666 26.025 11.6754 26.025 14.7045C26.025 17.7336 26.13 18.0424 26.085 19.2041V19.2188ZM23.685 8.27863C23.5064 7.80365 23.2248 7.3723 22.8597 7.01435C22.4945 6.6564 22.0545 6.38037 21.57 6.20529C20.9047 5.97923 20.204 5.86972 19.5 5.88179C18.33 5.88179 18 5.88179 15 5.88179C12 5.88179 11.67 5.88179 10.5 5.88179C9.7924 5.88857 9.0916 6.01801 8.43 6.26411C7.95289 6.43124 7.51754 6.696 7.15288 7.0408C6.78821 7.38561 6.50259 7.80255 6.315 8.26392C6.09717 8.91881 5.99074 9.60437 6 10.2931C6 11.4401 6 11.7636 6 14.7045C6 17.6454 6 17.9689 6 19.1158C6.01487 19.8087 6.14665 20.4944 6.39 21.1451C6.56859 21.62 6.85018 22.0514 7.21532 22.4093C7.58046 22.7673 8.02048 23.0433 8.505 23.2184C9.145 23.4491 9.81848 23.5782 10.5 23.6007C11.67 23.6007 12 23.6007 15 23.6007C18 23.6007 18.33 23.6007 19.5 23.6007C20.2076 23.5939 20.9084 23.4645 21.57 23.2184C22.0545 23.0433 22.4945 22.7673 22.8597 22.4093C23.2248 22.0514 23.5064 21.62 23.685 21.1451C23.9361 20.4965 24.0681 19.8095 24.075 19.1158C24.075 17.9689 24.075 17.6454 24.075 14.7045C24.075 11.7636 24.075 11.4401 24.075 10.2931C24.0754 9.59879 23.9432 8.91051 23.685 8.26392V8.27863ZM15 20.3216C14.2482 20.3216 13.5038 20.1762 12.8095 19.8937C12.1151 19.6113 11.4845 19.1973 10.9536 18.6755C10.4227 18.1537 10.002 17.5344 9.71572 16.853C9.42939 16.1715 9.28303 15.4414 9.285 14.7045C9.285 13.5929 9.62144 12.5063 10.2517 11.5823C10.882 10.6582 11.7778 9.93827 12.8257 9.51356C13.8736 9.08885 15.0265 8.97847 16.1384 9.1964C17.2503 9.41434 18.2713 9.95078 19.072 10.7378C19.8728 11.5249 20.4173 12.5271 20.6367 13.6177C20.8561 14.7083 20.7405 15.8381 20.3045 16.8643C19.8685 17.8904 19.1318 18.7667 18.1875 19.3821C17.2432 19.9975 16.1339 20.3245 15 20.3216ZM21 10.1902C20.6684 10.1558 20.3615 10.0023 20.1385 9.75932C19.9155 9.51633 19.7921 9.20103 19.7921 8.87416C19.7921 8.54729 19.9155 8.23198 20.1385 7.98899C20.3615 7.746 20.6684 7.59251 21 7.55811C21.3316 7.59251 21.6385 7.746 21.8615 7.98899C22.0845 8.23198 22.2079 8.54729 22.2079 8.87416C22.2079 9.20103 22.0845 9.51633 21.8615 9.75932C21.6385 10.0023 21.3316 10.1558 21 10.1902Z" fill="#D9D9D9"/>
</svg>
