<svg width="100" height="80" viewBox="0 0 100 80" fill="none" xmlns="http://www.w3.org/2000/svg">
<g clip-path="url(#clip0_128_25)">
<path d="M33.0605 6.75233C40.2414 6.75233 46.0629 11.72 46.0629 17.8477C46.0629 23.9753 40.2414 28.943 33.0605 28.943C25.8797 28.943 20.0582 23.9753 20.0582 17.8477C20.0582 11.72 25.8793 6.75233 33.0605 6.75233ZM12.1102 48.3373C12.1102 47.5043 12.7375 46.9393 13.7484 46.9393C14.7594 46.9393 15.3867 47.4747 15.3867 48.3373V79.3327H51.1168V48.3373C51.1168 47.5043 51.7441 46.9393 52.7551 46.9393C53.7312 46.9393 54.3934 47.4747 54.3934 48.3373V79.3327H65.7574V45.5413C65.7574 37.8967 58.4371 31.6797 49.5133 31.6797H46.2367L36.6855 44.3513L35.5352 34.8623L37.1039 31.6497H30.0625L31.6312 34.8623L30.4113 44.4107L20.8598 31.6797H17.0254C8.0668 31.6797 0.78125 37.9263 0.78125 45.5413V79.333H12.1453V48.3377H12.1102V48.3373ZM83.5938 25.3337H97.0371C98.2371 25.3337 99.2188 24.496 99.2188 23.472V2.64266C99.2188 1.63466 98.1879 0.666992 97.0234 0.666992H60.0246C58.8078 0.666992 57.8125 1.51633 57.8125 2.55466V23.5553C57.8125 24.5377 58.7457 25.334 59.8969 25.334H73.4375V28.334H69.8777C69.8887 28.3407 69.9219 28.3473 69.9219 28.3497V30.1873C69.9219 30.1873 69.8586 30.334 69.8777 30.334H86.7188V28.334H83.5938V25.3337ZM60.9375 21.3337V3.66699H96.0938V21.3337H60.9375Z" fill="#F2EDE2"/>
</g>
<defs>
<clipPath id="clip0_128_25">
<rect width="100" height="80" fill="white"/>
</clipPath>
</defs>
</svg>
