<svg width="30" height="31" viewBox="0 0 30 31" fill="none" xmlns="http://www.w3.org/2000/svg">
<g clip-path="url(#clip0_128_51)">
<path d="M25.5588 26.2545H21.1162V19.2932C21.1162 17.6332 21.0825 15.497 18.8013 15.497C16.485 15.497 16.1313 17.3032 16.1313 19.1707V26.2545H11.6887V11.9395H15.9563V13.8907H16.0138C16.61 12.7657 18.06 11.5782 20.2262 11.5782C24.7275 11.5782 25.56 14.5407 25.56 18.397V26.2545H25.5588ZM6.67125 9.9807C5.24125 9.9807 4.0925 8.8232 4.0925 7.39945C4.0925 5.97695 5.2425 4.8207 6.67125 4.8207C8.09625 4.8207 9.25125 5.97695 9.25125 7.39945C9.25125 8.8232 8.095 9.9807 6.67125 9.9807ZM8.89875 26.2545H4.44375V11.9395H8.89875V26.2545ZM27.7812 0.689453H2.21375C0.99 0.689453 0 1.65695 0 2.8507V28.5282C0 29.7232 0.99 30.6895 2.21375 30.6895H27.7775C29 30.6895 30 29.7232 30 28.5282V2.8507C30 1.65695 29 0.689453 27.7775 0.689453H27.7812Z" fill="#D9D9D9"/>
</g>
<defs>
<clipPath id="clip0_128_51">
<rect width="30" height="30" fill="white" transform="translate(0 0.689453)"/>
</clipPath>
</defs>
</svg>
