<svg width="100" height="80" viewBox="0 0 100 80" fill="none" xmlns="http://www.w3.org/2000/svg">
<path d="M11.6465 28.21C13.8855 37.3958 21.1069 45.8581 30.2597 45.8581C39.5487 45.8581 46.886 37.4337 49.1805 28.2723C50.0529 28.1666 50.7741 27.4513 50.8522 26.4758L51.1422 22.8557C51.2153 21.9127 50.6657 21.1052 49.8664 20.8071C49.8512 20.5904 49.8462 20.3709 49.8235 20.1568C49.652 11.8598 48.3106 5.16148 42.234 2.39219C35.8195 -0.528836 30.1664 -0.569481 26.0161 1.16471C25.7438 1.28123 25.0403 2.28652 24.7655 2.46806C24.4907 2.64961 23.0358 2.13477 22.4836 2.27297C13.3812 3.67116 10.3782 12.8868 11.0414 20.0728C11.0212 20.2733 11.0086 20.4766 10.9934 20.6798C10.1135 20.9155 9.48311 21.7745 9.56379 22.7771L9.85124 26.3972C9.93444 27.4215 10.7161 28.1639 11.6465 28.21ZM13.5855 21.0402C17.5719 19.4713 25.2395 16.1899 26.0716 14.4665C29.5588 18.3603 41.8734 20.547 47.2794 21.2759C47.3021 21.6526 47.3323 22.0184 47.3323 22.3977C47.3323 31.9493 39.8739 43.0536 30.2597 43.0536C20.6808 43.0536 13.5224 32.1498 13.5224 22.3977C13.5199 21.9398 13.5527 21.4927 13.5855 21.0402Z" fill="#F2EDE2"/>
<path d="M44.9269 42.5665C44.4478 42.4879 43.9788 42.6044 43.6712 42.7372L36.0035 53.8821L30.1866 48.8963L30.1513 48.9288V48.964L30.1437 48.9559L24.3268 53.9417L16.6591 42.7968C16.354 42.6613 15.8825 42.5448 15.4034 42.6234C0.917802 44.8182 0 79.979 0 79.979L30.179 80.0006V79.9437L60.3303 79.922C60.3328 79.922 59.41 44.7613 44.9269 42.5665Z" fill="#F2EDE2"/>
<path d="M60.5068 27.7308C62.3222 35.1824 68.182 42.0406 75.6026 42.0406C83.1366 42.0406 89.0897 35.2095 90.9506 27.7769C91.6566 27.6901 92.2441 27.113 92.3071 26.3218L92.5416 23.3872C92.6021 22.6203 92.1533 21.9646 91.5053 21.7234C91.4952 21.5527 91.4876 21.3712 91.47 21.2005C91.3313 14.4724 90.2446 9.03403 85.3177 6.79042C80.116 4.42216 75.5295 4.38694 72.1634 5.79326C71.944 5.8881 71.3742 6.70371 71.1523 6.85545C70.9254 7.00449 69.7478 6.58178 69.3016 6.69558C61.9188 7.82823 59.4806 15.3042 60.0176 21.1327C60 21.298 59.9924 21.4606 59.9798 21.6259C59.2663 21.8183 58.7569 22.5147 58.8225 23.3249L59.0544 26.2594C59.1175 27.0886 59.7529 27.6929 60.5068 27.7308ZM62.0777 21.9131C65.3101 20.6396 71.533 17.9787 72.2062 16.5805C75.0378 19.7345 85.0252 21.5067 89.4074 22.1055C89.4276 22.4036 89.4528 22.7071 89.4528 23.0132C89.4528 30.7575 83.4064 39.7672 75.6051 39.7672C67.8341 39.7672 62.0272 30.9228 62.0272 23.0132C62.0272 22.6447 62.0499 22.2789 62.0777 21.9131Z" fill="#F2EDE2"/>
<path d="M87.5013 39.3768C87.113 39.3118 86.7322 39.4066 86.4876 39.5123L80.2647 48.5545L75.5471 44.5116L75.5194 44.536V44.5658L75.5118 44.5604L70.7942 48.6032L64.5714 39.561C64.3243 39.4527 63.941 39.3632 63.5577 39.4256C59.7226 40.0054 57.0676 43.4413 55.2194 47.7957C56.3111 49.6085 57.8492 52.4997 59.1528 56.3041C60.4513 60.0841 61.3111 65.2325 61.8709 69.7387L75.5421 69.7468V69.6981L100 69.6818C99.9975 69.6737 99.2511 41.1489 87.5013 39.3768Z" fill="#F2EDE2"/>
</svg>
