<svg width="32" height="32" viewBox="0 0 32 32" fill="none" xmlns="http://www.w3.org/2000/svg">
<path d="M2.46748 32L4.46427 24.0512C3.14854 21.6078 2.45728 18.8288 2.46157 16C2.46157 7.1632 9.07375 0 17.2308 0C25.3878 0 32 7.1632 32 16C32 24.8368 25.3878 32 17.2308 32C14.6207 32.0045 12.0566 31.2563 9.80187 29.832L2.46748 32ZM11.9006 8.49279C11.7099 8.50562 11.5235 8.56004 11.3526 8.65279C11.1924 8.75108 11.0462 8.87395 10.9184 9.01759C10.7412 9.19839 10.6408 9.35519 10.5329 9.50719C9.98709 10.2768 9.69348 11.2215 9.69849 12.192C9.70144 12.976 9.89049 13.7392 10.1859 14.4528C10.7899 15.896 11.7839 17.424 13.0969 18.84C13.4129 19.1808 13.7216 19.5232 14.0539 19.8416C15.6835 21.3959 17.6255 22.5168 19.7253 23.1152L20.5657 23.2544C20.8389 23.2704 21.1121 23.248 21.3868 23.2336C21.817 23.2095 22.237 23.0834 22.6171 22.864C22.8623 22.7232 22.9775 22.6528 23.1828 22.512C23.1828 22.512 23.2463 22.4672 23.3674 22.368C23.5668 22.208 23.6894 22.0944 23.8548 21.9072C23.9774 21.7696 24.0837 21.608 24.1649 21.424C24.2801 21.1632 24.3953 20.6656 24.4426 20.2512C24.478 19.9344 24.4677 19.7616 24.4633 19.6544C24.4574 19.4832 24.3259 19.3056 24.1827 19.2304L23.3231 18.8128C23.3231 18.8128 22.0382 18.2064 21.2539 17.8192C21.1712 17.7801 21.0826 17.7579 20.9925 17.7536C20.8915 17.7423 20.7894 17.7547 20.6931 17.7897C20.5968 17.8248 20.5085 17.8817 20.4342 17.9568V17.9536C20.4268 17.9536 20.3279 18.0448 19.2601 19.4464C19.1988 19.5356 19.1144 19.603 19.0176 19.6401C18.9208 19.6771 18.816 19.6821 18.7166 19.6544C18.6203 19.6265 18.5261 19.5912 18.4345 19.5488C18.2513 19.4656 18.1878 19.4336 18.0623 19.3744L18.0549 19.3712C17.21 18.9715 16.4277 18.4317 15.7361 17.7712C15.5501 17.5952 15.3773 17.4032 15.2 17.2176C14.619 16.6148 14.1126 15.9328 13.6936 15.1888L13.6064 15.0368C13.5438 14.9347 13.4932 14.8245 13.4558 14.7088C13.3997 14.4736 13.5459 14.2848 13.5459 14.2848C13.5459 14.2848 13.9048 13.8592 14.0717 13.6288C14.2106 13.4373 14.3403 13.2381 14.4601 13.032C14.6344 12.728 14.689 12.416 14.5974 12.1744C14.1839 11.08 13.7556 9.99039 13.3155 8.90879C13.2283 8.69439 12.9699 8.54079 12.735 8.51039C12.6553 8.50079 12.5755 8.49119 12.4958 8.48479C12.2974 8.47412 12.0987 8.47626 11.9006 8.49119V8.49279Z" fill="#575970"/>
</svg>
